# xmcd CD database file
#
# Track frame offsets:
#	150
#	13145
#	24752
#	36220
#	42910
#	55165
#	67810
#	78320
#	88172
#	99192
#	109917
#	120060
#	129732
#	142830
#	153780
#
# Disc length: 2161 seconds
#
# Revision: 1
# Processed by: cddbd v1.5.2PL0 Copyright (c) Steve Scherf et al.
# Submitted via: NeoAudio 9.9.9
#
DISCID=ab086f0f
DTITLE=Country Stars - Vol 3 - Country Stars - Vol 3
DYEAR=1900
DGENRE=Country
TTITLE0=Billy Joe Royal - Cherry Hill Park
TTITLE1=George Jones - White Lightning
TTITLE2=Razzy Bailey - 9,999,999 Tears
TTITLE3=Roy Clark - Sally Was A Good Old Girl
TTITLE4=Kenny Rogers - Reuben James
TTITLE5=Kitty Wells - Mommy For A Day
TTITLE6=Conway Twitty - Let Me Be The Judge
TTITLE7=Ronnie Dove - Right Or Wrong
TTITLE8=Hank Williams Sr. - Go On  And Break Your Crazy Heart
TTITLE9=Patsy Cline - Honky Tonk Merry Go Round
TTITLE10=Glenn Campbell - Gentle On My Mind
TTITLE11=Johnny Cash - Ballad Of A Teenage Queen
TTITLE12=Mac Davis - Burning Thing
TTITLE13=Roy Drusky - Long. Long Texas Road
TTITLE14=Waylon Jennings - Abilene
EXTD=
EXTT0=
EXTT1=
EXTT2=
EXTT3=
EXTT4=
EXTT5=
EXTT6=
EXTT7=
EXTT8=
EXTT9=
EXTT10=
EXTT11=
EXTT12=
EXTT13=
EXTT14=
PLAYORDER=
